<svg xmlns="http://www.w3.org/2000/svg" viewBox="0 0 120 120"><defs><clipPath id="c"><rect width="120" height="120" rx="28"/></clipPath></defs><g clip-path="url(#c)"><rect width="120" height="120" fill="#e3eefb"/><path d="M60 14 L65 33 L84 38 L65 43 L60 62 L55 43 L36 38 L55 33 Z" fill="#f0b23c"/><path d="M0 78 C30 62 56 74 80 66 S110 60 120 66 L120 120 L0 120 Z" fill="#b9d3f2"/><path d="M0 92 C28 82 60 96 90 86 S114 84 120 88 L120 120 L0 120 Z" fill="#7fb0ea"/><path d="M0 106 C34 98 70 110 120 100 L120 120 L0 120 Z" fill="#2a78d6"/></g></svg>
